<?xml version="1.0" encoding="UTF-8" standalone="no"?>
<!DOCTYPE svg PUBLIC "-//W3C//DTD SVG 1.1//EN"
 "http://www.w3.org/Graphics/SVG/1.1/DTD/svg11.dtd">
<!-- Generated by graphviz version 2.43.0 (0)
 -->
<!-- Title: jwt::decoded_jwt&lt; json_traits &gt; Pages: 1 -->
<svg width="280pt" height="104pt"
 viewBox="0.00 0.00 279.50 104.00" xmlns="http://www.w3.org/2000/svg" xmlns:xlink="http://www.w3.org/1999/xlink">
<g id="graph0" class="graph" transform="scale(1 1) rotate(0) translate(4 100)">
<title>jwt::decoded_jwt&lt; json_traits &gt;</title>
<!-- Node1 -->
<g id="Node000001" class="node">
<title>Node1</title>
<g id="a_Node000001"><a xlink:title=" ">
<polygon fill="#999999" stroke="#666666" points="210,-30 79,-30 79,0 210,0 210,-30"/>
<text text-anchor="start" x="87" y="-18" font-family="Helvetica,sans-Serif" font-size="10.00">jwt::decoded_jwt&lt; json</text>
<text text-anchor="middle" x="144.5" y="-7" font-family="Helvetica,sans-Serif" font-size="10.00">_traits &gt;</text>
</a>
</g>
</g>
<!-- Node2 -->
<g id="Node000002" class="node">
<title>Node2</title>
<g id="a_Node000002"><a xlink:href="classjwt_1_1header.html" target="_top" xlink:title=" ">
<polygon fill="white" stroke="#666666" points="145,-90.5 0,-90.5 0,-71.5 145,-71.5 145,-90.5"/>
<text text-anchor="middle" x="72.5" y="-78.5" font-family="Helvetica,sans-Serif" font-size="10.00">jwt::header&lt; json_traits &gt;</text>
</a>
</g>
</g>
<!-- Node2&#45;&gt;Node1 -->
<g id="edge1_Node000001_Node000002" class="edge">
<title>Node2&#45;&gt;Node1</title>
<g id="a_edge1_Node000001_Node000002"><a xlink:title=" ">
<path fill="none" stroke="#63b8ff" d="M89.7,-64.71C101.52,-54.21 117.09,-40.36 128.62,-30.12"/>
<polygon fill="#63b8ff" stroke="#63b8ff" points="87.36,-62.11 82.21,-71.37 92.01,-67.34 87.36,-62.11"/>
</a>
</g>
</g>
<!-- Node3 -->
<g id="Node000003" class="node">
<title>Node3</title>
<g id="a_Node000003"><a xlink:href="classjwt_1_1payload.html" target="_top" xlink:title=" ">
<polygon fill="white" stroke="#666666" points="271.5,-96 163.5,-96 163.5,-66 271.5,-66 271.5,-96"/>
<text text-anchor="start" x="171.5" y="-84" font-family="Helvetica,sans-Serif" font-size="10.00">jwt::payload&lt; json</text>
<text text-anchor="middle" x="217.5" y="-73" font-family="Helvetica,sans-Serif" font-size="10.00">_traits &gt;</text>
</a>
</g>
</g>
<!-- Node3&#45;&gt;Node1 -->
<g id="edge2_Node000001_Node000003" class="edge">
<title>Node3&#45;&gt;Node1</title>
<g id="a_edge2_Node000001_Node000003"><a xlink:title=" ">
<path fill="none" stroke="#63b8ff" d="M193.78,-59.2C182.94,-49.7 170.38,-38.69 160.66,-30.16"/>
<polygon fill="#63b8ff" stroke="#63b8ff" points="191.47,-61.84 201.3,-65.8 196.09,-56.57 191.47,-61.84"/>
</a>
</g>
</g>
</g>
</svg>
