<?xml version="1.0" encoding="UTF-8" standalone="no"?>
<!DOCTYPE svg PUBLIC "-//W3C//DTD SVG 1.1//EN"
 "http://www.w3.org/Graphics/SVG/1.1/DTD/svg11.dtd">
<!-- Generated by graphviz version 2.43.0 (0)
 -->
<!-- Title: example/print&#45;claims.cpp Pages: 1 -->
<svg width="2174pt" height="258pt"
 viewBox="0.00 0.00 2173.81 258.00" xmlns="http://www.w3.org/2000/svg" xmlns:xlink="http://www.w3.org/1999/xlink">
<g id="graph0" class="graph" transform="scale(1 1) rotate(0) translate(4 254)">
<title>example/print&#45;claims.cpp</title>
<!-- Node1 -->
<g id="Node000001" class="node">
<title>Node1</title>
<g id="a_Node000001"><a xlink:title=" ">
<polygon fill="#999999" stroke="#666666" points="1170.26,-250 1029.26,-250 1029.26,-231 1170.26,-231 1170.26,-250"/>
<text text-anchor="middle" x="1099.76" y="-238" font-family="Helvetica,sans-Serif" font-size="10.00">example/print&#45;claims.cpp</text>
</a>
</g>
</g>
<!-- Node2 -->
<g id="Node000002" class="node">
<title>Node2</title>
<g id="a_Node000002"><a xlink:title=" ">
<polygon fill="#e0e0e0" stroke="#999999" points="1085.76,-195 1025.76,-195 1025.76,-176 1085.76,-176 1085.76,-195"/>
<text text-anchor="middle" x="1055.76" y="-183" font-family="Helvetica,sans-Serif" font-size="10.00">iostream</text>
</a>
</g>
</g>
<!-- Node1&#45;&gt;Node2 -->
<g id="edge1_Node000001_Node000002" class="edge">
<title>Node1&#45;&gt;Node2</title>
<g id="a_edge1_Node000001_Node000002"><a xlink:title=" ">
<path fill="none" stroke="#63b8ff" d="M1092.49,-230.75C1086.21,-223.18 1076.97,-212.05 1069.33,-202.84"/>
<polygon fill="#63b8ff" stroke="#63b8ff" points="1071.97,-200.55 1062.89,-195.09 1066.58,-205.02 1071.97,-200.55"/>
</a>
</g>
</g>
<!-- Node3 -->
<g id="Node000003" class="node">
<title>Node3</title>
<g id="a_Node000003"><a xlink:href="jwt_8h_source.html" target="_top" xlink:title=" ">
<polygon fill="white" stroke="#666666" points="1183.76,-195 1103.76,-195 1103.76,-176 1183.76,-176 1183.76,-195"/>
<text text-anchor="middle" x="1143.76" y="-183" font-family="Helvetica,sans-Serif" font-size="10.00">jwt&#45;cpp/jwt.h</text>
</a>
</g>
</g>
<!-- Node1&#45;&gt;Node3 -->
<g id="edge2_Node000001_Node000003" class="edge">
<title>Node1&#45;&gt;Node3</title>
<g id="a_edge2_Node000001_Node000003"><a xlink:title=" ">
<path fill="none" stroke="#63b8ff" d="M1107.02,-230.75C1113.3,-223.18 1122.54,-212.05 1130.19,-202.84"/>
<polygon fill="#63b8ff" stroke="#63b8ff" points="1132.93,-205.02 1136.63,-195.09 1127.55,-200.55 1132.93,-205.02"/>
</a>
</g>
</g>
<!-- Node4 -->
<g id="Node000004" class="node">
<title>Node4</title>
<g id="a_Node000004"><a xlink:title=" ">
<polygon fill="#e0e0e0" stroke="#999999" points="1075.76,-19 965.76,-19 965.76,0 1075.76,0 1075.76,-19"/>
<text text-anchor="middle" x="1020.76" y="-7" font-family="Helvetica,sans-Serif" font-size="10.00">picojson/picojson.h</text>
</a>
</g>
</g>
<!-- Node3&#45;&gt;Node4 -->
<g id="edge3_Node000003_Node000004" class="edge">
<title>Node3&#45;&gt;Node4</title>
<g id="a_edge3_Node000003_Node000004"><a xlink:title=" ">
<path fill="none" stroke="#63b8ff" d="M1103.71,-177.09C1100.68,-176.68 1097.68,-176.3 1094.76,-176 981.85,-164.27 178.5,-183.75 73.76,-140 34.3,-123.52 20.7,-113.26 3.76,-74 0.41,-66.25 -2.08,-61.1 3.76,-55 36.71,-20.58 736.14,-12.57 955.54,-10.9"/>
<polygon fill="#63b8ff" stroke="#63b8ff" points="955.64,-14.4 965.62,-10.83 955.59,-7.4 955.64,-14.4"/>
</a>
</g>
</g>
<!-- Node5 -->
<g id="Node000005" class="node">
<title>Node5</title>
<g id="a_Node000005"><a xlink:href="base_8h_source.html" target="_top" xlink:title=" ">
<polygon fill="white" stroke="#666666" points="172.26,-134.5 123.26,-134.5 123.26,-115.5 172.26,-115.5 172.26,-134.5"/>
<text text-anchor="middle" x="147.76" y="-122.5" font-family="Helvetica,sans-Serif" font-size="10.00">base.h</text>
</a>
</g>
</g>
<!-- Node3&#45;&gt;Node5 -->
<g id="edge4_Node000003_Node000005" class="edge">
<title>Node3&#45;&gt;Node5</title>
<g id="a_edge4_Node000003_Node000005"><a xlink:title=" ">
<path fill="none" stroke="#63b8ff" d="M1103.71,-177.11C1100.68,-176.69 1097.68,-176.31 1094.76,-176 693.14,-133.39 583.2,-217.12 186.76,-140 183.75,-139.41 180.66,-138.64 177.6,-137.74"/>
<polygon fill="#63b8ff" stroke="#63b8ff" points="178.66,-134.41 168.07,-134.61 176.48,-141.06 178.66,-134.41"/>
</a>
</g>
</g>
<!-- Node6 -->
<g id="Node000006" class="node">
<title>Node6</title>
<g id="a_Node000006"><a xlink:title=" ">
<polygon fill="#e0e0e0" stroke="#999999" points="76.76,-74 12.76,-74 12.76,-55 76.76,-55 76.76,-74"/>
<text text-anchor="middle" x="44.76" y="-62" font-family="Helvetica,sans-Serif" font-size="10.00">algorithm</text>
</a>
</g>
</g>
<!-- Node3&#45;&gt;Node6 -->
<g id="edge19_Node000003_Node000006" class="edge">
<title>Node3&#45;&gt;Node6</title>
<g id="a_edge19_Node000003_Node000006"><a xlink:title=" ">
<path fill="none" stroke="#63b8ff" d="M1103.71,-177.1C1100.68,-176.68 1097.68,-176.31 1094.76,-176 986.39,-164.66 213.95,-185.09 114.76,-140 88.58,-128.1 67.5,-101.43 55.55,-83.45"/>
<polygon fill="#63b8ff" stroke="#63b8ff" points="58.19,-81.07 49.88,-74.5 52.28,-84.82 58.19,-81.07"/>
</a>
</g>
</g>
<!-- Node11 -->
<g id="Node000011" class="node">
<title>Node11</title>
<g id="a_Node000011"><a xlink:title=" ">
<polygon fill="#e0e0e0" stroke="#999999" points="416.26,-74 369.26,-74 369.26,-55 416.26,-55 416.26,-74"/>
<text text-anchor="middle" x="392.76" y="-62" font-family="Helvetica,sans-Serif" font-size="10.00">vector</text>
</a>
</g>
</g>
<!-- Node3&#45;&gt;Node11 -->
<g id="edge33_Node000003_Node000011" class="edge">
<title>Node3&#45;&gt;Node11</title>
<g id="a_edge33_Node000003_Node000011"><a xlink:title=" ">
<path fill="none" stroke="#63b8ff" d="M1103.7,-177.11C1100.68,-176.69 1097.67,-176.31 1094.76,-176 1046.43,-170.84 254.4,-175.06 220.76,-140 211.52,-130.38 212.59,-120.54 220.76,-110 220.89,-109.82 309.53,-86.95 359.49,-74.07"/>
<polygon fill="#63b8ff" stroke="#63b8ff" points="360.41,-77.45 369.22,-71.56 358.67,-70.67 360.41,-77.45"/>
</a>
</g>
</g>
<!-- Node12 -->
<g id="Node000012" class="node">
<title>Node12</title>
<g id="a_Node000012"><a xlink:title=" ">
<polygon fill="#e0e0e0" stroke="#999999" points="306.26,-134.5 229.26,-134.5 229.26,-115.5 306.26,-115.5 306.26,-134.5"/>
<text text-anchor="middle" x="267.76" y="-122.5" font-family="Helvetica,sans-Serif" font-size="10.00">openssl/ec.h</text>
</a>
</g>
</g>
<!-- Node3&#45;&gt;Node12 -->
<g id="edge11_Node000003_Node000012" class="edge">
<title>Node3&#45;&gt;Node12</title>
<g id="a_edge11_Node000003_Node000012"><a xlink:title=" ">
<path fill="none" stroke="#63b8ff" d="M1103.7,-177.13C1100.68,-176.7 1097.67,-176.32 1094.76,-176 750.22,-138.31 657.64,-196.92 315.76,-140 311.52,-139.29 307.12,-138.34 302.79,-137.25"/>
<polygon fill="#63b8ff" stroke="#63b8ff" points="303.47,-133.81 292.9,-134.55 301.63,-140.56 303.47,-133.81"/>
</a>
</g>
</g>
<!-- Node13 -->
<g id="Node000013" class="node">
<title>Node13</title>
<g id="a_Node000013"><a xlink:title=" ">
<polygon fill="#e0e0e0" stroke="#999999" points="419.26,-134.5 324.26,-134.5 324.26,-115.5 419.26,-115.5 419.26,-134.5"/>
<text text-anchor="middle" x="371.76" y="-122.5" font-family="Helvetica,sans-Serif" font-size="10.00">openssl/ecdsa.h</text>
</a>
</g>
</g>
<!-- Node3&#45;&gt;Node13 -->
<g id="edge12_Node000003_Node000013" class="edge">
<title>Node3&#45;&gt;Node13</title>
<g id="a_edge12_Node000003_Node000013"><a xlink:title=" ">
<path fill="none" stroke="#63b8ff" d="M1103.7,-177.16C1100.68,-176.72 1097.67,-176.33 1094.76,-176 800.21,-142.61 721.97,-183.54 428.76,-140 423.28,-139.19 417.55,-138.09 411.93,-136.86"/>
<polygon fill="#63b8ff" stroke="#63b8ff" points="412.55,-133.41 402.02,-134.55 410.96,-140.23 412.55,-133.41"/>
</a>
</g>
</g>
<!-- Node14 -->
<g id="Node000014" class="node">
<title>Node14</title>
<g id="a_Node000014"><a xlink:title=" ">
<polygon fill="#e0e0e0" stroke="#999999" points="516.26,-134.5 437.26,-134.5 437.26,-115.5 516.26,-115.5 516.26,-134.5"/>
<text text-anchor="middle" x="476.76" y="-122.5" font-family="Helvetica,sans-Serif" font-size="10.00">openssl/err.h</text>
</a>
</g>
</g>
<!-- Node3&#45;&gt;Node14 -->
<g id="edge13_Node000003_Node000014" class="edge">
<title>Node3&#45;&gt;Node14</title>
<g id="a_edge13_Node000003_Node000014"><a xlink:title=" ">
<path fill="none" stroke="#63b8ff" d="M1103.7,-177.19C1100.68,-176.75 1097.67,-176.34 1094.76,-176 842.67,-146.26 774.79,-183.8 524.76,-140 520.57,-139.27 516.23,-138.3 511.95,-137.22"/>
<polygon fill="#63b8ff" stroke="#63b8ff" points="512.74,-133.81 502.17,-134.54 510.89,-140.56 512.74,-133.81"/>
</a>
</g>
</g>
<!-- Node15 -->
<g id="Node000015" class="node">
<title>Node15</title>
<g id="a_Node000015"><a xlink:title=" ">
<polygon fill="#e0e0e0" stroke="#999999" points="617.76,-134.5 533.76,-134.5 533.76,-115.5 617.76,-115.5 617.76,-134.5"/>
<text text-anchor="middle" x="575.76" y="-122.5" font-family="Helvetica,sans-Serif" font-size="10.00">openssl/evp.h</text>
</a>
</g>
</g>
<!-- Node3&#45;&gt;Node15 -->
<g id="edge14_Node000003_Node000015" class="edge">
<title>Node3&#45;&gt;Node15</title>
<g id="a_edge14_Node000003_Node000015"><a xlink:title=" ">
<path fill="none" stroke="#63b8ff" d="M1103.69,-177.23C1100.67,-176.78 1097.67,-176.36 1094.76,-176 887.75,-150.14 832.28,-175.78 626.76,-140 622.26,-139.22 617.58,-138.21 612.97,-137.1"/>
<polygon fill="#63b8ff" stroke="#63b8ff" points="613.62,-133.65 603.06,-134.53 611.87,-140.43 613.62,-133.65"/>
</a>
</g>
</g>
<!-- Node16 -->
<g id="Node000016" class="node">
<title>Node16</title>
<g id="a_Node000016"><a xlink:title=" ">
<polygon fill="#e0e0e0" stroke="#999999" points="728.26,-134.5 635.26,-134.5 635.26,-115.5 728.26,-115.5 728.26,-134.5"/>
<text text-anchor="middle" x="681.76" y="-122.5" font-family="Helvetica,sans-Serif" font-size="10.00">openssl/hmac.h</text>
</a>
</g>
</g>
<!-- Node3&#45;&gt;Node16 -->
<g id="edge15_Node000003_Node000016" class="edge">
<title>Node3&#45;&gt;Node16</title>
<g id="a_edge15_Node000003_Node000016"><a xlink:title=" ">
<path fill="none" stroke="#63b8ff" d="M1103.68,-177.31C1100.66,-176.84 1097.66,-176.4 1094.76,-176 936.76,-154.36 894.85,-167.41 737.76,-140 732.7,-139.12 727.43,-138.03 722.23,-136.85"/>
<polygon fill="#63b8ff" stroke="#63b8ff" points="722.93,-133.42 712.39,-134.51 721.31,-140.23 722.93,-133.42"/>
</a>
</g>
</g>
<!-- Node17 -->
<g id="Node000017" class="node">
<title>Node17</title>
<g id="a_Node000017"><a xlink:title=" ">
<polygon fill="#e0e0e0" stroke="#999999" points="834.76,-134.5 746.76,-134.5 746.76,-115.5 834.76,-115.5 834.76,-134.5"/>
<text text-anchor="middle" x="790.76" y="-122.5" font-family="Helvetica,sans-Serif" font-size="10.00">openssl/pem.h</text>
</a>
</g>
</g>
<!-- Node3&#45;&gt;Node17 -->
<g id="edge16_Node000003_Node000017" class="edge">
<title>Node3&#45;&gt;Node17</title>
<g id="a_edge16_Node000003_Node000017"><a xlink:title=" ">
<path fill="none" stroke="#63b8ff" d="M1103.66,-177.45C1100.65,-176.95 1097.66,-176.46 1094.76,-176 983.89,-158.4 954.81,-162.12 844.76,-140 840.31,-139.11 835.68,-138.07 831.09,-136.98"/>
<polygon fill="#63b8ff" stroke="#63b8ff" points="831.73,-133.53 821.18,-134.52 830.04,-140.32 831.73,-133.53"/>
</a>
</g>
</g>
<!-- Node18 -->
<g id="Node000018" class="node">
<title>Node18</title>
<g id="a_Node000018"><a xlink:title=" ">
<polygon fill="#e0e0e0" stroke="#999999" points="934.26,-134.5 853.26,-134.5 853.26,-115.5 934.26,-115.5 934.26,-134.5"/>
<text text-anchor="middle" x="893.76" y="-122.5" font-family="Helvetica,sans-Serif" font-size="10.00">openssl/rsa.h</text>
</a>
</g>
</g>
<!-- Node3&#45;&gt;Node18 -->
<g id="edge17_Node000003_Node000018" class="edge">
<title>Node3&#45;&gt;Node18</title>
<g id="a_edge17_Node000003_Node000018"><a xlink:title=" ">
<path fill="none" stroke="#63b8ff" d="M1103.38,-176.19C1062.88,-167.69 998.78,-153.82 943.76,-140 940.33,-139.14 936.78,-138.21 933.23,-137.27"/>
<polygon fill="#63b8ff" stroke="#63b8ff" points="933.87,-133.81 923.3,-134.56 932.02,-140.56 933.87,-133.81"/>
</a>
</g>
</g>
<!-- Node19 -->
<g id="Node000019" class="node">
<title>Node19</title>
<g id="a_Node000019"><a xlink:title=" ">
<polygon fill="#e0e0e0" stroke="#999999" points="1032.76,-134.5 952.76,-134.5 952.76,-115.5 1032.76,-115.5 1032.76,-134.5"/>
<text text-anchor="middle" x="992.76" y="-122.5" font-family="Helvetica,sans-Serif" font-size="10.00">openssl/ssl.h</text>
</a>
</g>
</g>
<!-- Node3&#45;&gt;Node19 -->
<g id="edge18_Node000003_Node000019" class="edge">
<title>Node3&#45;&gt;Node19</title>
<g id="a_edge18_Node000003_Node000019"><a xlink:title=" ">
<path fill="none" stroke="#63b8ff" d="M1121.8,-175.99C1096.08,-166.03 1053.28,-149.45 1024.08,-138.13"/>
<polygon fill="#63b8ff" stroke="#63b8ff" points="1025.33,-134.87 1014.74,-134.52 1022.8,-141.39 1025.33,-134.87"/>
</a>
</g>
</g>
<!-- Node20 -->
<g id="Node000020" class="node">
<title>Node20</title>
<g id="a_Node000020"><a xlink:title=" ">
<polygon fill="#e0e0e0" stroke="#999999" points="1100.76,-134.5 1050.76,-134.5 1050.76,-115.5 1100.76,-115.5 1100.76,-134.5"/>
<text text-anchor="middle" x="1075.76" y="-122.5" font-family="Helvetica,sans-Serif" font-size="10.00">chrono</text>
</a>
</g>
</g>
<!-- Node3&#45;&gt;Node20 -->
<g id="edge20_Node000003_Node000020" class="edge">
<title>Node3&#45;&gt;Node20</title>
<g id="a_edge20_Node000003_Node000020"><a xlink:title=" ">
<path fill="none" stroke="#63b8ff" d="M1133.72,-175.87C1123.18,-166.8 1106.37,-152.34 1093.56,-141.32"/>
<polygon fill="#63b8ff" stroke="#63b8ff" points="1095.69,-138.54 1085.83,-134.67 1091.13,-143.84 1095.69,-138.54"/>
</a>
</g>
</g>
<!-- Node21 -->
<g id="Node000021" class="node">
<title>Node21</title>
<g id="a_Node000021"><a xlink:title=" ">
<polygon fill="#e0e0e0" stroke="#999999" points="1168.76,-134.5 1118.76,-134.5 1118.76,-115.5 1168.76,-115.5 1168.76,-134.5"/>
<text text-anchor="middle" x="1143.76" y="-122.5" font-family="Helvetica,sans-Serif" font-size="10.00">climits</text>
</a>
</g>
</g>
<!-- Node3&#45;&gt;Node21 -->
<g id="edge21_Node000003_Node000021" class="edge">
<title>Node3&#45;&gt;Node21</title>
<g id="a_edge21_Node000003_Node000021"><a xlink:title=" ">
<path fill="none" stroke="#63b8ff" d="M1143.76,-175.87C1143.76,-167.75 1143.76,-155.31 1143.76,-144.89"/>
<polygon fill="#63b8ff" stroke="#63b8ff" points="1147.26,-144.67 1143.76,-134.67 1140.26,-144.67 1147.26,-144.67"/>
</a>
</g>
</g>
<!-- Node22 -->
<g id="Node000022" class="node">
<title>Node22</title>
<g id="a_Node000022"><a xlink:title=" ">
<polygon fill="#e0e0e0" stroke="#999999" points="1234.26,-134.5 1187.26,-134.5 1187.26,-115.5 1234.26,-115.5 1234.26,-134.5"/>
<text text-anchor="middle" x="1210.76" y="-122.5" font-family="Helvetica,sans-Serif" font-size="10.00">cmath</text>
</a>
</g>
</g>
<!-- Node3&#45;&gt;Node22 -->
<g id="edge22_Node000003_Node000022" class="edge">
<title>Node3&#45;&gt;Node22</title>
<g id="a_edge22_Node000003_Node000022"><a xlink:title=" ">
<path fill="none" stroke="#63b8ff" d="M1153.64,-175.87C1164.03,-166.8 1180.59,-152.34 1193.21,-141.32"/>
<polygon fill="#63b8ff" stroke="#63b8ff" points="1195.6,-143.88 1200.83,-134.67 1190.99,-138.61 1195.6,-143.88"/>
</a>
</g>
</g>
<!-- Node23 -->
<g id="Node000023" class="node">
<title>Node23</title>
<g id="a_Node000023"><a xlink:title=" ">
<polygon fill="#e0e0e0" stroke="#999999" points="1302.76,-134.5 1252.76,-134.5 1252.76,-115.5 1302.76,-115.5 1302.76,-134.5"/>
<text text-anchor="middle" x="1277.76" y="-122.5" font-family="Helvetica,sans-Serif" font-size="10.00">cstring</text>
</a>
</g>
</g>
<!-- Node3&#45;&gt;Node23 -->
<g id="edge23_Node000003_Node000023" class="edge">
<title>Node3&#45;&gt;Node23</title>
<g id="a_edge23_Node000003_Node000023"><a xlink:title=" ">
<path fill="none" stroke="#63b8ff" d="M1163.24,-175.99C1185.77,-166.16 1223.06,-149.88 1248.94,-138.58"/>
<polygon fill="#63b8ff" stroke="#63b8ff" points="1250.48,-141.73 1258.25,-134.52 1247.68,-135.31 1250.48,-141.73"/>
</a>
</g>
</g>
<!-- Node24 -->
<g id="Node000024" class="node">
<title>Node24</title>
<g id="a_Node000024"><a xlink:title=" ">
<polygon fill="#e0e0e0" stroke="#999999" points="1386.26,-134.5 1321.26,-134.5 1321.26,-115.5 1386.26,-115.5 1386.26,-134.5"/>
<text text-anchor="middle" x="1353.76" y="-122.5" font-family="Helvetica,sans-Serif" font-size="10.00">functional</text>
</a>
</g>
</g>
<!-- Node3&#45;&gt;Node24 -->
<g id="edge24_Node000003_Node000024" class="edge">
<title>Node3&#45;&gt;Node24</title>
<g id="a_edge24_Node000003_Node000024"><a xlink:title=" ">
<path fill="none" stroke="#63b8ff" d="M1178.68,-175.93C1212.79,-167.4 1266.08,-153.65 1311.76,-140 1314.2,-139.27 1316.73,-138.49 1319.26,-137.69"/>
<polygon fill="#63b8ff" stroke="#63b8ff" points="1320.53,-140.96 1328.96,-134.55 1318.37,-134.3 1320.53,-140.96"/>
</a>
</g>
</g>
<!-- Node25 -->
<g id="Node000025" class="node">
<title>Node25</title>
<g id="a_Node000025"><a xlink:title=" ">
<polygon fill="#e0e0e0" stroke="#999999" points="1457.26,-134.5 1404.26,-134.5 1404.26,-115.5 1457.26,-115.5 1457.26,-134.5"/>
<text text-anchor="middle" x="1430.76" y="-122.5" font-family="Helvetica,sans-Serif" font-size="10.00">iterator</text>
</a>
</g>
</g>
<!-- Node3&#45;&gt;Node25 -->
<g id="edge25_Node000003_Node000025" class="edge">
<title>Node3&#45;&gt;Node25</title>
<g id="a_edge25_Node000003_Node000025"><a xlink:title=" ">
<path fill="none" stroke="#63b8ff" d="M1184.05,-179.98C1234.29,-173.76 1322.48,-160.88 1395.76,-140 1397.69,-139.45 1399.67,-138.83 1401.64,-138.16"/>
<polygon fill="#63b8ff" stroke="#63b8ff" points="1403.21,-141.32 1411.38,-134.57 1400.79,-134.75 1403.21,-141.32"/>
</a>
</g>
</g>
<!-- Node26 -->
<g id="Node000026" class="node">
<title>Node26</title>
<g id="a_Node000026"><a xlink:title=" ">
<polygon fill="#e0e0e0" stroke="#999999" points="1521.76,-134.5 1475.76,-134.5 1475.76,-115.5 1521.76,-115.5 1521.76,-134.5"/>
<text text-anchor="middle" x="1498.76" y="-122.5" font-family="Helvetica,sans-Serif" font-size="10.00">locale</text>
</a>
</g>
</g>
<!-- Node3&#45;&gt;Node26 -->
<g id="edge26_Node000003_Node000026" class="edge">
<title>Node3&#45;&gt;Node26</title>
<g id="a_edge26_Node000003_Node000026"><a xlink:title=" ">
<path fill="none" stroke="#63b8ff" d="M1184.01,-182.51C1245.84,-178.67 1367.46,-167.98 1466.76,-140 1468.44,-139.53 1470.15,-138.98 1471.87,-138.38"/>
<polygon fill="#63b8ff" stroke="#63b8ff" points="1473.45,-141.52 1481.47,-134.6 1470.88,-135.01 1473.45,-141.52"/>
</a>
</g>
</g>
<!-- Node27 -->
<g id="Node000027" class="node">
<title>Node27</title>
<g id="a_Node000027"><a xlink:title=" ">
<polygon fill="#e0e0e0" stroke="#999999" points="1597.76,-134.5 1539.76,-134.5 1539.76,-115.5 1597.76,-115.5 1597.76,-134.5"/>
<text text-anchor="middle" x="1568.76" y="-122.5" font-family="Helvetica,sans-Serif" font-size="10.00">memory</text>
</a>
</g>
</g>
<!-- Node3&#45;&gt;Node27 -->
<g id="edge27_Node000003_Node000027" class="edge">
<title>Node3&#45;&gt;Node27</title>
<g id="a_edge27_Node000003_Node000027"><a xlink:title=" ">
<path fill="none" stroke="#63b8ff" d="M1183.85,-183.03C1254.73,-179.75 1406.41,-169.61 1530.76,-140 1533.27,-139.4 1535.84,-138.69 1538.41,-137.9"/>
<polygon fill="#63b8ff" stroke="#63b8ff" points="1539.77,-141.13 1548.13,-134.61 1537.53,-134.5 1539.77,-141.13"/>
</a>
</g>
</g>
<!-- Node28 -->
<g id="Node000028" class="node">
<title>Node28</title>
<g id="a_Node000028"><a xlink:title=" ">
<polygon fill="#e0e0e0" stroke="#999999" points="1647.76,-134.5 1615.76,-134.5 1615.76,-115.5 1647.76,-115.5 1647.76,-134.5"/>
<text text-anchor="middle" x="1631.76" y="-122.5" font-family="Helvetica,sans-Serif" font-size="10.00">set</text>
</a>
</g>
</g>
<!-- Node3&#45;&gt;Node28 -->
<g id="edge28_Node000003_Node000028" class="edge">
<title>Node3&#45;&gt;Node28</title>
<g id="a_edge28_Node000003_Node000028"><a xlink:title=" ">
<path fill="none" stroke="#63b8ff" d="M1183.93,-182.76C1281.42,-178.21 1528.24,-164.56 1606.76,-140 1607.65,-139.72 1608.55,-139.41 1609.44,-139.06"/>
<polygon fill="#63b8ff" stroke="#63b8ff" points="1611.21,-142.1 1618.73,-134.63 1608.19,-135.78 1611.21,-142.1"/>
</a>
</g>
</g>
<!-- Node29 -->
<g id="Node000029" class="node">
<title>Node29</title>
<g id="a_Node000029"><a xlink:title=" ">
<polygon fill="#e0e0e0" stroke="#999999" points="1747.26,-134.5 1666.26,-134.5 1666.26,-115.5 1747.26,-115.5 1747.26,-134.5"/>
<text text-anchor="middle" x="1706.76" y="-122.5" font-family="Helvetica,sans-Serif" font-size="10.00">system_error</text>
</a>
</g>
</g>
<!-- Node3&#45;&gt;Node29 -->
<g id="edge29_Node000003_Node000029" class="edge">
<title>Node3&#45;&gt;Node29</title>
<g id="a_edge29_Node000003_Node000029"><a xlink:title=" ">
<path fill="none" stroke="#63b8ff" d="M1184,-183.56C1270.96,-180.96 1482.6,-171.65 1656.76,-140 1661,-139.23 1665.4,-138.26 1669.75,-137.19"/>
<polygon fill="#63b8ff" stroke="#63b8ff" points="1670.95,-140.49 1679.72,-134.56 1669.16,-133.72 1670.95,-140.49"/>
</a>
</g>
</g>
<!-- Node30 -->
<g id="Node000030" class="node">
<title>Node30</title>
<g id="a_Node000030"><a xlink:title=" ">
<polygon fill="#e0e0e0" stroke="#999999" points="1834.26,-134.5 1765.26,-134.5 1765.26,-115.5 1834.26,-115.5 1834.26,-134.5"/>
<text text-anchor="middle" x="1799.76" y="-122.5" font-family="Helvetica,sans-Serif" font-size="10.00">type_traits</text>
</a>
</g>
</g>
<!-- Node3&#45;&gt;Node30 -->
<g id="edge30_Node000003_Node000030" class="edge">
<title>Node3&#45;&gt;Node30</title>
<g id="a_edge30_Node000003_Node000030"><a xlink:title=" ">
<path fill="none" stroke="#63b8ff" d="M1184,-184.93C1282.65,-185.25 1543.93,-181.73 1756.76,-140 1760.17,-139.33 1763.7,-138.47 1767.19,-137.51"/>
<polygon fill="#63b8ff" stroke="#63b8ff" points="1768.26,-140.84 1776.82,-134.6 1766.23,-134.14 1768.26,-140.84"/>
</a>
</g>
</g>
<!-- Node31 -->
<g id="Node000031" class="node">
<title>Node31</title>
<g id="a_Node000031"><a xlink:title=" ">
<polygon fill="#e0e0e0" stroke="#999999" points="1945.26,-134.5 1852.26,-134.5 1852.26,-115.5 1945.26,-115.5 1945.26,-134.5"/>
<text text-anchor="middle" x="1898.76" y="-122.5" font-family="Helvetica,sans-Serif" font-size="10.00">unordered_map</text>
</a>
</g>
</g>
<!-- Node3&#45;&gt;Node31 -->
<g id="edge31_Node000003_Node000031" class="edge">
<title>Node3&#45;&gt;Node31</title>
<g id="a_edge31_Node000003_Node000031"><a xlink:title=" ">
<path fill="none" stroke="#63b8ff" d="M1183.9,-184.55C1291.5,-184.11 1595.06,-179.21 1843.76,-140 1848.92,-139.19 1854.3,-138.11 1859.59,-136.91"/>
<polygon fill="#63b8ff" stroke="#63b8ff" points="1860.67,-140.25 1869.57,-134.5 1859.02,-133.45 1860.67,-140.25"/>
</a>
</g>
</g>
<!-- Node32 -->
<g id="Node000032" class="node">
<title>Node32</title>
<g id="a_Node000032"><a xlink:title=" ">
<polygon fill="#e0e0e0" stroke="#999999" points="2008.26,-134.5 1963.26,-134.5 1963.26,-115.5 2008.26,-115.5 2008.26,-134.5"/>
<text text-anchor="middle" x="1985.76" y="-122.5" font-family="Helvetica,sans-Serif" font-size="10.00">utility</text>
</a>
</g>
</g>
<!-- Node3&#45;&gt;Node32 -->
<g id="edge32_Node000003_Node000032" class="edge">
<title>Node3&#45;&gt;Node32</title>
<g id="a_edge32_Node000003_Node000032"><a xlink:title=" ">
<path fill="none" stroke="#63b8ff" d="M1184.14,-184.24C1326.75,-183.03 1806.13,-176.29 1954.76,-140 1956.49,-139.58 1958.25,-139.06 1960,-138.47"/>
<polygon fill="#63b8ff" stroke="#63b8ff" points="1961.76,-141.54 1969.75,-134.58 1959.16,-135.04 1961.76,-141.54"/>
</a>
</g>
</g>
<!-- Node33 -->
<g id="Node000033" class="node">
<title>Node33</title>
<g id="a_Node000033"><a xlink:href="kazuho-picojson_2defaults_8h_source.html" target="_top" xlink:title=" ">
<polygon fill="white" stroke="#666666" points="2150.76,-140 2026.76,-140 2026.76,-110 2150.76,-110 2150.76,-140"/>
<text text-anchor="start" x="2034.76" y="-128" font-family="Helvetica,sans-Serif" font-size="10.00">traits/kazuho&#45;picojson</text>
<text text-anchor="middle" x="2088.76" y="-117" font-family="Helvetica,sans-Serif" font-size="10.00">/defaults.h</text>
</a>
</g>
</g>
<!-- Node3&#45;&gt;Node33 -->
<g id="edge34_Node000003_Node000033" class="edge">
<title>Node3&#45;&gt;Node33</title>
<g id="a_edge34_Node000003_Node000033"><a xlink:title=" ">
<path fill="none" stroke="#63b8ff" d="M1184.01,-184.5C1307.21,-184.08 1690.12,-179.54 2016.38,-140.04"/>
<polygon fill="#63b8ff" stroke="#63b8ff" points="2017,-143.49 2026.5,-138.8 2016.15,-136.54 2017,-143.49"/>
</a>
</g>
</g>
<!-- Node5&#45;&gt;Node6 -->
<g id="edge5_Node000005_Node000006" class="edge">
<title>Node5&#45;&gt;Node6</title>
<g id="a_edge5_Node000005_Node000006"><a xlink:title=" ">
<path fill="none" stroke="#63b8ff" d="M132.56,-115.37C115.75,-105.82 88.43,-90.31 68.73,-79.12"/>
<polygon fill="#63b8ff" stroke="#63b8ff" points="70.44,-76.06 60.02,-74.17 66.98,-82.15 70.44,-76.06"/>
</a>
</g>
</g>
<!-- Node7 -->
<g id="Node000007" class="node">
<title>Node7</title>
<g id="a_Node000007"><a xlink:title=" ">
<polygon fill="#e0e0e0" stroke="#999999" points="136.76,-74 94.76,-74 94.76,-55 136.76,-55 136.76,-74"/>
<text text-anchor="middle" x="115.76" y="-62" font-family="Helvetica,sans-Serif" font-size="10.00">array</text>
</a>
</g>
</g>
<!-- Node5&#45;&gt;Node7 -->
<g id="edge6_Node000005_Node000007" class="edge">
<title>Node5&#45;&gt;Node7</title>
<g id="a_edge6_Node000005_Node000007"><a xlink:title=" ">
<path fill="none" stroke="#63b8ff" d="M143.03,-115.37C138.4,-106.9 131.2,-93.74 125.36,-83.07"/>
<polygon fill="#63b8ff" stroke="#63b8ff" points="128.37,-81.26 120.5,-74.17 122.23,-84.62 128.37,-81.26"/>
</a>
</g>
</g>
<!-- Node8 -->
<g id="Node000008" class="node">
<title>Node8</title>
<g id="a_Node000008"><a xlink:title=" ">
<polygon fill="#e0e0e0" stroke="#999999" points="204.76,-74 154.76,-74 154.76,-55 204.76,-55 204.76,-74"/>
<text text-anchor="middle" x="179.76" y="-62" font-family="Helvetica,sans-Serif" font-size="10.00">cstdint</text>
</a>
</g>
</g>
<!-- Node5&#45;&gt;Node8 -->
<g id="edge7_Node000005_Node000008" class="edge">
<title>Node5&#45;&gt;Node8</title>
<g id="a_edge7_Node000005_Node000008"><a xlink:title=" ">
<path fill="none" stroke="#63b8ff" d="M152.48,-115.37C157.11,-106.9 164.31,-93.74 170.15,-83.07"/>
<polygon fill="#63b8ff" stroke="#63b8ff" points="173.29,-84.62 175.01,-74.17 167.15,-81.26 173.29,-84.62"/>
</a>
</g>
</g>
<!-- Node9 -->
<g id="Node000009" class="node">
<title>Node9</title>
<g id="a_Node000009"><a xlink:title=" ">
<polygon fill="#e0e0e0" stroke="#999999" points="288.26,-74 223.26,-74 223.26,-55 288.26,-55 288.26,-74"/>
<text text-anchor="middle" x="255.76" y="-62" font-family="Helvetica,sans-Serif" font-size="10.00">stdexcept</text>
</a>
</g>
</g>
<!-- Node5&#45;&gt;Node9 -->
<g id="edge8_Node000005_Node000009" class="edge">
<title>Node5&#45;&gt;Node9</title>
<g id="a_edge8_Node000005_Node000009"><a xlink:title=" ">
<path fill="none" stroke="#63b8ff" d="M163.69,-115.37C181.4,-105.78 210.22,-90.17 230.9,-78.97"/>
<polygon fill="#63b8ff" stroke="#63b8ff" points="232.63,-82.01 239.75,-74.17 229.29,-75.85 232.63,-82.01"/>
</a>
</g>
</g>
<!-- Node10 -->
<g id="Node000010" class="node">
<title>Node10</title>
<g id="a_Node000010"><a xlink:title=" ">
<polygon fill="#e0e0e0" stroke="#999999" points="350.76,-74 306.76,-74 306.76,-55 350.76,-55 350.76,-74"/>
<text text-anchor="middle" x="328.76" y="-62" font-family="Helvetica,sans-Serif" font-size="10.00">string</text>
</a>
</g>
</g>
<!-- Node5&#45;&gt;Node10 -->
<g id="edge9_Node000005_Node000010" class="edge">
<title>Node5&#45;&gt;Node10</title>
<g id="a_edge9_Node000005_Node000010"><a xlink:title=" ">
<path fill="none" stroke="#63b8ff" d="M171.21,-115.4C176.32,-113.58 181.71,-111.7 186.76,-110 224.27,-97.39 267.73,-83.94 296.59,-75.17"/>
<polygon fill="#63b8ff" stroke="#63b8ff" points="297.97,-78.41 306.53,-72.16 295.94,-71.71 297.97,-78.41"/>
</a>
</g>
</g>
<!-- Node5&#45;&gt;Node11 -->
<g id="edge10_Node000005_Node000011" class="edge">
<title>Node5&#45;&gt;Node11</title>
<g id="a_edge10_Node000005_Node000011"><a xlink:title=" ">
<path fill="none" stroke="#63b8ff" d="M169.86,-115.46C175.33,-113.52 181.22,-111.56 186.76,-110 259.39,-89.51 281.55,-91.59 359.24,-74.01"/>
<polygon fill="#63b8ff" stroke="#63b8ff" points="360.04,-77.42 369,-71.76 358.47,-70.59 360.04,-77.42"/>
</a>
</g>
</g>
<!-- Node34 -->
<g id="Node000034" class="node">
<title>Node34</title>
<g id="a_Node000034"><a xlink:href="kazuho-picojson_2traits_8h_source.html" target="_top" xlink:title=" ">
<polygon fill="white" stroke="#666666" points="2114.26,-74 2063.26,-74 2063.26,-55 2114.26,-55 2114.26,-74"/>
<text text-anchor="middle" x="2088.76" y="-62" font-family="Helvetica,sans-Serif" font-size="10.00">traits.h</text>
</a>
</g>
</g>
<!-- Node33&#45;&gt;Node34 -->
<g id="edge35_Node000033_Node000034" class="edge">
<title>Node33&#45;&gt;Node34</title>
<g id="a_edge35_Node000033_Node000034"><a xlink:title=" ">
<path fill="none" stroke="#63b8ff" d="M2088.76,-109.84C2088.76,-102.21 2088.76,-92.7 2088.76,-84.45"/>
<polygon fill="#63b8ff" stroke="#63b8ff" points="2092.26,-84.27 2088.76,-74.27 2085.26,-84.27 2092.26,-84.27"/>
</a>
</g>
</g>
<!-- Node34&#45;&gt;Node3 -->
<g id="edge37_Node000034_Node000003" class="edge">
<title>Node34&#45;&gt;Node3</title>
<g id="a_edge37_Node000034_Node000003"><a xlink:title=" ">
<path fill="none" stroke="#63b8ff" d="M2114.26,-74.1C2130.45,-81.04 2150.11,-92.56 2159.76,-110 2166.21,-121.67 2168.98,-130.37 2159.76,-140 2126.06,-175.2 1394.69,-182.78 1194.19,-184.2"/>
<polygon fill="#63b8ff" stroke="#63b8ff" points="1193.92,-180.71 1183.95,-184.27 1193.97,-187.71 1193.92,-180.71"/>
</a>
</g>
</g>
<!-- Node34&#45;&gt;Node4 -->
<g id="edge36_Node000034_Node000004" class="edge">
<title>Node34&#45;&gt;Node4</title>
<g id="a_edge36_Node000034_Node000004"><a xlink:title=" ">
<path fill="none" stroke="#63b8ff" d="M2063.15,-62.23C1927.68,-55.51 1293.04,-24.01 1086.15,-13.75"/>
<polygon fill="#63b8ff" stroke="#63b8ff" points="1086.2,-10.24 1076.04,-13.24 1085.85,-17.23 1086.2,-10.24"/>
</a>
</g>
</g>
</g>
</svg>
