<?xml version="1.0" encoding="UTF-8" standalone="no"?>
<!DOCTYPE svg PUBLIC "-//W3C//DTD SVG 1.1//EN"
 "http://www.w3.org/Graphics/SVG/1.1/DTD/svg11.dtd">
<!-- Generated by graphviz version 2.43.0 (0)
 -->
<!-- Title: jwt::algorithm::rsa Pages: 1 -->
<svg width="398pt" height="82pt"
 viewBox="0.00 0.00 398.00 82.00" xmlns="http://www.w3.org/2000/svg" xmlns:xlink="http://www.w3.org/1999/xlink">
<g id="graph0" class="graph" transform="scale(1 1) rotate(0) translate(4 78)">
<title>jwt::algorithm::rsa</title>
<!-- Node1 -->
<g id="Node000001" class="node">
<title>Node1</title>
<g id="a_Node000001"><a xlink:title="Base class for RSA family of algorithms.">
<polygon fill="#999999" stroke="#666666" points="248,-74 142,-74 142,-55 248,-55 248,-74"/>
<text text-anchor="middle" x="195" y="-62" font-family="Helvetica,sans-Serif" font-size="10.00">jwt::algorithm::rsa</text>
</a>
</g>
</g>
<!-- Node2 -->
<g id="Node000002" class="node">
<title>Node2</title>
<g id="a_Node000002"><a xlink:href="structjwt_1_1algorithm_1_1rs256.html" target="_top" xlink:title=" ">
<polygon fill="white" stroke="#666666" points="118,-19 0,-19 0,0 118,0 118,-19"/>
<text text-anchor="middle" x="59" y="-7" font-family="Helvetica,sans-Serif" font-size="10.00">jwt::algorithm::rs256</text>
</a>
</g>
</g>
<!-- Node1&#45;&gt;Node2 -->
<g id="edge1_Node000001_Node000002" class="edge">
<title>Node1&#45;&gt;Node2</title>
<g id="a_edge1_Node000001_Node000002"><a xlink:title=" ">
<path fill="none" stroke="#63b8ff" d="M163.67,-51.29C138.46,-41.47 103.67,-27.91 81.25,-19.17"/>
<polygon fill="#63b8ff" stroke="#63b8ff" points="162.56,-54.61 173.15,-54.98 165.1,-48.09 162.56,-54.61"/>
</a>
</g>
</g>
<!-- Node3 -->
<g id="Node000003" class="node">
<title>Node3</title>
<g id="a_Node000003"><a xlink:href="structjwt_1_1algorithm_1_1rs384.html" target="_top" xlink:title=" ">
<polygon fill="white" stroke="#666666" points="254,-19 136,-19 136,0 254,0 254,-19"/>
<text text-anchor="middle" x="195" y="-7" font-family="Helvetica,sans-Serif" font-size="10.00">jwt::algorithm::rs384</text>
</a>
</g>
</g>
<!-- Node1&#45;&gt;Node3 -->
<g id="edge2_Node000001_Node000003" class="edge">
<title>Node1&#45;&gt;Node3</title>
<g id="a_edge2_Node000001_Node000003"><a xlink:title=" ">
<path fill="none" stroke="#63b8ff" d="M195,-44.66C195,-35.93 195,-25.99 195,-19.09"/>
<polygon fill="#63b8ff" stroke="#63b8ff" points="191.5,-44.75 195,-54.75 198.5,-44.75 191.5,-44.75"/>
</a>
</g>
</g>
<!-- Node4 -->
<g id="Node000004" class="node">
<title>Node4</title>
<g id="a_Node000004"><a xlink:href="structjwt_1_1algorithm_1_1rs512.html" target="_top" xlink:title=" ">
<polygon fill="white" stroke="#666666" points="390,-19 272,-19 272,0 390,0 390,-19"/>
<text text-anchor="middle" x="331" y="-7" font-family="Helvetica,sans-Serif" font-size="10.00">jwt::algorithm::rs512</text>
</a>
</g>
</g>
<!-- Node1&#45;&gt;Node4 -->
<g id="edge3_Node000001_Node000004" class="edge">
<title>Node1&#45;&gt;Node4</title>
<g id="a_edge3_Node000001_Node000004"><a xlink:title=" ">
<path fill="none" stroke="#63b8ff" d="M226.33,-51.29C251.54,-41.47 286.33,-27.91 308.75,-19.17"/>
<polygon fill="#63b8ff" stroke="#63b8ff" points="224.9,-48.09 216.85,-54.98 227.44,-54.61 224.9,-48.09"/>
</a>
</g>
</g>
</g>
</svg>
