<?xml version="1.0" encoding="UTF-8" standalone="no"?>
<!DOCTYPE svg PUBLIC "-//W3C//DTD SVG 1.1//EN"
 "http://www.w3.org/Graphics/SVG/1.1/DTD/svg11.dtd">
<!-- Generated by graphviz version 2.43.0 (0)
 -->
<!-- Title: jwt::algorithm::eddsa Pages: 1 -->
<svg width="280pt" height="82pt"
 viewBox="0.00 0.00 280.00 82.00" xmlns="http://www.w3.org/2000/svg" xmlns:xlink="http://www.w3.org/1999/xlink">
<g id="graph0" class="graph" transform="scale(1 1) rotate(0) translate(4 78)">
<title>jwt::algorithm::eddsa</title>
<!-- Node1 -->
<g id="Node000001" class="node">
<title>Node1</title>
<g id="a_Node000001"><a xlink:title="Base class for EdDSA family of algorithms.">
<polygon fill="#999999" stroke="#666666" points="198.5,-74 78.5,-74 78.5,-55 198.5,-55 198.5,-74"/>
<text text-anchor="middle" x="138.5" y="-62" font-family="Helvetica,sans-Serif" font-size="10.00">jwt::algorithm::eddsa</text>
</a>
</g>
</g>
<!-- Node2 -->
<g id="Node000002" class="node">
<title>Node2</title>
<g id="a_Node000002"><a xlink:href="structjwt_1_1algorithm_1_1ed25519.html" target="_top" xlink:title=" ">
<polygon fill="white" stroke="#666666" points="133,-19 0,-19 0,0 133,0 133,-19"/>
<text text-anchor="middle" x="66.5" y="-7" font-family="Helvetica,sans-Serif" font-size="10.00">jwt::algorithm::ed25519</text>
</a>
</g>
</g>
<!-- Node1&#45;&gt;Node2 -->
<g id="edge1_Node000001_Node000002" class="edge">
<title>Node1&#45;&gt;Node2</title>
<g id="a_edge1_Node000001_Node000002"><a xlink:title=" ">
<path fill="none" stroke="#63b8ff" d="M118.63,-48.88C105.68,-39.34 89.2,-27.21 78.28,-19.17"/>
<polygon fill="#63b8ff" stroke="#63b8ff" points="116.8,-51.88 126.93,-54.98 120.95,-46.24 116.8,-51.88"/>
</a>
</g>
</g>
<!-- Node3 -->
<g id="Node000003" class="node">
<title>Node3</title>
<g id="a_Node000003"><a xlink:href="structjwt_1_1algorithm_1_1ed448.html" target="_top" xlink:title=" ">
<polygon fill="white" stroke="#666666" points="272,-19 151,-19 151,0 272,0 272,-19"/>
<text text-anchor="middle" x="211.5" y="-7" font-family="Helvetica,sans-Serif" font-size="10.00">jwt::algorithm::ed448</text>
</a>
</g>
</g>
<!-- Node1&#45;&gt;Node3 -->
<g id="edge2_Node000001_Node000003" class="edge">
<title>Node1&#45;&gt;Node3</title>
<g id="a_edge2_Node000001_Node000003"><a xlink:title=" ">
<path fill="none" stroke="#63b8ff" d="M158.64,-48.88C171.78,-39.34 188.48,-27.21 199.56,-19.17"/>
<polygon fill="#63b8ff" stroke="#63b8ff" points="156.26,-46.28 150.23,-54.98 160.38,-51.94 156.26,-46.28"/>
</a>
</g>
</g>
</g>
</svg>
