<?xml version="1.0" encoding="UTF-8" standalone="no"?>
<!DOCTYPE svg PUBLIC "-//W3C//DTD SVG 1.1//EN"
 "http://www.w3.org/Graphics/SVG/1.1/DTD/svg11.dtd">
<!-- Generated by graphviz version 2.43.0 (0)
 -->
<!-- Title: jwt::algorithm::ecdsa Pages: 1 -->
<svg width="289pt" height="138pt"
 viewBox="0.00 0.00 289.00 138.00" xmlns="http://www.w3.org/2000/svg" xmlns:xlink="http://www.w3.org/1999/xlink">
<g id="graph0" class="graph" transform="scale(1 1) rotate(0) translate(4 134)">
<title>jwt::algorithm::ecdsa</title>
<!-- Node1 -->
<g id="Node000001" class="node">
<title>Node1</title>
<g id="a_Node000001"><a xlink:title="Base class for ECDSA family of algorithms.">
<polygon fill="#999999" stroke="#666666" points="119,-74 0,-74 0,-55 119,-55 119,-74"/>
<text text-anchor="middle" x="59.5" y="-62" font-family="Helvetica,sans-Serif" font-size="10.00">jwt::algorithm::ecdsa</text>
</a>
</g>
</g>
<!-- Node2 -->
<g id="Node000002" class="node">
<title>Node2</title>
<g id="a_Node000002"><a xlink:href="structjwt_1_1algorithm_1_1es256.html" target="_top" xlink:title=" ">
<polygon fill="white" stroke="#666666" points="278,-130 158,-130 158,-111 278,-111 278,-130"/>
<text text-anchor="middle" x="218" y="-118" font-family="Helvetica,sans-Serif" font-size="10.00">jwt::algorithm::es256</text>
</a>
</g>
</g>
<!-- Node1&#45;&gt;Node2 -->
<g id="edge1_Node000001_Node000002" class="edge">
<title>Node1&#45;&gt;Node2</title>
<g id="a_edge1_Node000001_Node000002"><a xlink:title=" ">
<path fill="none" stroke="#63b8ff" d="M91.71,-77.96C109.98,-85.61 133.61,-95.11 155,-102.5 163.58,-105.46 172.94,-108.35 181.72,-110.92"/>
<polygon fill="#63b8ff" stroke="#63b8ff" points="92.99,-74.7 82.41,-74.04 90.26,-81.15 92.99,-74.7"/>
</a>
</g>
</g>
<!-- Node3 -->
<g id="Node000003" class="node">
<title>Node3</title>
<g id="a_Node000003"><a xlink:href="structjwt_1_1algorithm_1_1es256k.html" target="_top" xlink:title=" ">
<polygon fill="white" stroke="#666666" points="281,-93 155,-93 155,-74 281,-74 281,-93"/>
<text text-anchor="middle" x="218" y="-81" font-family="Helvetica,sans-Serif" font-size="10.00">jwt::algorithm::es256k</text>
</a>
</g>
</g>
<!-- Node1&#45;&gt;Node3 -->
<g id="edge2_Node000001_Node000003" class="edge">
<title>Node1&#45;&gt;Node3</title>
<g id="a_edge2_Node000001_Node000003"><a xlink:title=" ">
<path fill="none" stroke="#63b8ff" d="M129.15,-72.83C137.69,-73.87 146.38,-74.93 154.81,-75.95"/>
<polygon fill="#63b8ff" stroke="#63b8ff" points="129.57,-69.36 119.22,-71.63 128.73,-76.31 129.57,-69.36"/>
</a>
</g>
</g>
<!-- Node4 -->
<g id="Node000004" class="node">
<title>Node4</title>
<g id="a_Node000004"><a xlink:href="structjwt_1_1algorithm_1_1es384.html" target="_top" xlink:title=" ">
<polygon fill="white" stroke="#666666" points="278,-56 158,-56 158,-37 278,-37 278,-56"/>
<text text-anchor="middle" x="218" y="-44" font-family="Helvetica,sans-Serif" font-size="10.00">jwt::algorithm::es384</text>
</a>
</g>
</g>
<!-- Node1&#45;&gt;Node4 -->
<g id="edge3_Node000001_Node000004" class="edge">
<title>Node1&#45;&gt;Node4</title>
<g id="a_edge3_Node000001_Node000004"><a xlink:title=" ">
<path fill="none" stroke="#63b8ff" d="M129.44,-56.57C138.95,-55.48 148.64,-54.36 157.95,-53.29"/>
<polygon fill="#63b8ff" stroke="#63b8ff" points="128.75,-53.13 119.22,-57.75 129.55,-60.08 128.75,-53.13"/>
</a>
</g>
</g>
<!-- Node5 -->
<g id="Node000005" class="node">
<title>Node5</title>
<g id="a_Node000005"><a xlink:href="structjwt_1_1algorithm_1_1es512.html" target="_top" xlink:title=" ">
<polygon fill="white" stroke="#666666" points="278,-19 158,-19 158,0 278,0 278,-19"/>
<text text-anchor="middle" x="218" y="-7" font-family="Helvetica,sans-Serif" font-size="10.00">jwt::algorithm::es512</text>
</a>
</g>
</g>
<!-- Node1&#45;&gt;Node5 -->
<g id="edge4_Node000001_Node000005" class="edge">
<title>Node1&#45;&gt;Node5</title>
<g id="a_edge4_Node000001_Node000005"><a xlink:title=" ">
<path fill="none" stroke="#63b8ff" d="M93.9,-51.16C111.89,-44.12 134.54,-35.52 155,-28.5 164.48,-25.25 174.86,-21.96 184.37,-19.05"/>
<polygon fill="#63b8ff" stroke="#63b8ff" points="92.45,-47.96 84.42,-54.88 95.01,-54.48 92.45,-47.96"/>
</a>
</g>
</g>
</g>
</svg>
